<svg width="256" height="256" viewBox="0 0 256 256" version="1.1" xmlns="http://www.w3.org/2000/svg" xmlns:xlink="http://www.w3.org/1999/xlink" xmlns:figma="http://www.figma.com/figma/ns">
<title>Frame 2</title>
<desc>Created using Figma</desc>
<g id="Canvas" transform="translate(-372 142)" figma:type="canvas">
<mask id="mask0_alpha" mask-type="alpha">
<path d="M 372 -142L 628 -142L 628 114L 372 114L 372 -142Z" fill="#FFFFFF"/>
</mask>
<g id="Frame 2" style="mix-blend-mode:normal;" mask="url(#mask0_alpha)" figma:type="frame">
<g id="Mask Group" style="mix-blend-mode:normal;" figma:type="frame">
<mask id="mask1_alpha" mask-type="alpha">
<g id="Group" style="mix-blend-mode:normal;" figma:type="frame">
<g id="Vector 6" style="mix-blend-mode:normal;" opacity="0.3" figma:type="vector">
<use xlink:href="#path0_fill" transform="translate(481.424 -40.3015)" fill="#302F2E" style="mix-blend-mode:normal;"/>
<use xlink:href="#path1_fill" transform="translate(481.424 -40.3015)" fill="#302F2E" style="mix-blend-mode:normal;"/>
<use xlink:href="#path2_fill" transform="translate(481.424 -40.3015)" fill="#302F2E" style="mix-blend-mode:normal;"/>
</g>
<g id="Subtract" style="mix-blend-mode:normal;" figma:type="vector-operation">
<use xlink:href="#path3_fill" transform="translate(474 -44.2078)" fill="#302F2E" style="mix-blend-mode:normal;"/>
</g>
<g id="Vector 3" style="mix-blend-mode:normal;" figma:type="vector">
<use xlink:href="#path4_fill" transform="translate(484.859 -27.4286)" fill="#302F2E" style="mix-blend-mode:normal;"/>
<use xlink:href="#path5_fill" transform="translate(484.859 -27.4286)" fill="#302F2E" style="mix-blend-mode:normal;"/>
</g>
<g id="Union" style="mix-blend-mode:normal;" figma:type="vector">
<use xlink:href="#path6_fill" transform="translate(504.939 -60)" fill="#302F2E" style="mix-blend-mode:normal;"/>
</g>
</g>
</mask>
<g id="Vector 5" style="mix-blend-mode:normal;" mask="url(#mask1_alpha)" figma:type="vector">
<use xlink:href="#path7_fill" transform="translate(389 -85.5)" style="mix-blend-mode:normal;"/>
</g>
</g>
<g id="Vector 5" style="mix-blend-mode:normal;" figma:type="vector">
<use xlink:href="#path8_stroke" transform="translate(405 -7)" fill="#B3B3B3" style="mix-blend-mode:normal;"/>
</g>
<g id="Mask Group" style="mix-blend-mode:normal;" figma:type="frame">
<mask id="mask2_alpha" mask-type="alpha">
<g id="Group" style="mix-blend-mode:normal;" figma:type="frame">
<g id="Vector 6" style="mix-blend-mode:normal;" opacity="0.3" figma:type="vector">
<use xlink:href="#path0_fill" transform="translate(410.424 12.6985)" fill="#302F2E" style="mix-blend-mode:normal;"/>
<use xlink:href="#path1_fill" transform="translate(410.424 12.6985)" fill="#302F2E" style="mix-blend-mode:normal;"/>
<use xlink:href="#path2_fill" transform="translate(410.424 12.6985)" fill="#302F2E" style="mix-blend-mode:normal;"/>
</g>
<g id="Subtract" style="mix-blend-mode:normal;" figma:type="vector-operation">
<use xlink:href="#path9_fill" transform="translate(403 8.79221)" fill="#302F2E" style="mix-blend-mode:normal;"/>
</g>
<g id="Vector 3" style="mix-blend-mode:normal;" figma:type="vector">
<use xlink:href="#path4_fill" transform="translate(413.859 25.5714)" fill="#302F2E" style="mix-blend-mode:normal;"/>
<use xlink:href="#path5_fill" transform="translate(413.859 25.5714)" fill="#302F2E" style="mix-blend-mode:normal;"/>
</g>
<g id="Union" style="mix-blend-mode:normal;" figma:type="vector">
<use xlink:href="#path6_fill" transform="translate(433.939 -7)" fill="#302F2E" style="mix-blend-mode:normal;"/>
</g>
<g id="Vector 6" style="mix-blend-mode:normal;" opacity="0.3" figma:type="vector">
<use xlink:href="#path0_fill" transform="translate(515.424 36.6985)" fill="#302F2E" style="mix-blend-mode:normal;"/>
<use xlink:href="#path1_fill" transform="translate(515.424 36.6985)" fill="#302F2E" style="mix-blend-mode:normal;"/>
<use xlink:href="#path2_fill" transform="translate(515.424 36.6985)" fill="#302F2E" style="mix-blend-mode:normal;"/>
</g>
<g id="Subtract" style="mix-blend-mode:normal;" figma:type="vector-operation">
<use xlink:href="#path10_fill" transform="translate(508 32.7922)" fill="#302F2E" style="mix-blend-mode:normal;"/>
</g>
<g id="Vector 3" style="mix-blend-mode:normal;" figma:type="vector">
<use xlink:href="#path4_fill" transform="translate(518.859 49.5714)" fill="#302F2E" style="mix-blend-mode:normal;"/>
<use xlink:href="#path5_fill" transform="translate(518.859 49.5714)" fill="#302F2E" style="mix-blend-mode:normal;"/>
</g>
<g id="Union" style="mix-blend-mode:normal;" figma:type="vector">
<use xlink:href="#path6_fill" transform="translate(538.939 17)" fill="#302F2E" style="mix-blend-mode:normal;"/>
</g>
</g>
</mask>
<g id="Vector 5" style="mix-blend-mode:normal;" mask="url(#mask2_alpha)" figma:type="vector">
<use xlink:href="#path11_fill" transform="translate(389 -22)" style="mix-blend-mode:normal;"/>
</g>
</g>
<g id="Vector 5" style="mix-blend-mode:normal;" figma:type="vector">
<use xlink:href="#path12_stroke" transform="translate(389 33.84)" fill="#B3B3B3" style="mix-blend-mode:normal;"/>
</g>
<g id="Vector 5" style="mix-blend-mode:normal;" figma:type="vector">
<use xlink:href="#path13_stroke" transform="translate(415 -26.015)" fill="#B3B3B3" style="mix-blend-mode:normal;"/>
</g>
<g id="Subtract" style="mix-blend-mode:normal;" figma:type="vector-operation">
<use xlink:href="#path14_fill" transform="translate(430.613 -45.9529)" fill="#B3B3B3" style="mix-blend-mode:normal;"/>
</g>
<g id="Subtract" style="mix-blend-mode:normal;" figma:type="vector-operation">
<use xlink:href="#path15_fill" transform="translate(393.521 11.1221)" fill="#B3B3B3" style="mix-blend-mode:normal;"/>
</g>
<g id="Vector 4" style="mix-blend-mode:normal;" figma:type="vector">
<use xlink:href="#path16_fill" transform="matrix(-6.12323e-17 1 1 6.12323e-17 546 -114)" fill="#302F2E" style="mix-blend-mode:normal;"/>
</g>
</g>
</g>
<defs>
<path id="path0_fill" d="M 32.0664 1.52232C 42.2495 4.23661 59.3867 10.6522 58.3933 27.1847C 57.3282 44.9084 40.5937 54.5743 34.7985 55.808C 45.2299 51.6132 56.5553 40.1145 57.1514 27.6782C 57.8965 12.1327 45.2298 6.70414 31.073 1.52232C 34.9641 6.21063 43.4416 18.0054 42.2495 29.6522C 41.0573 41.2989 31.6525 51.2842 28.0926 54.3275C 30.8246 51.2842 39.1697 41.2989 40.7593 29.6522C 42.3488 18.0054 34.1362 6.21063 30.0795 1.52232L 31.073 1.52232C 31.073 1.52232 26.8508 -0.204952 32.0664 1.52232Z"/>
<path id="path1_fill" d="M 0.275607 20.5223C 2.26254 8.48077 13.1906 -0.698451 23.622 0.0418064C 23.622 0.0418064 31.073 1.02881 24.1187 0.535308C 17.1645 0.0418063 4.70542 5.47038 1.7658 20.5223C -1.17381 35.5743 13.9357 52.6003 13.9357 52.6003C 7.47823 47.6652 -1.71133 32.5639 0.275607 20.5223Z"/>
<path id="path2_fill" d="M 19.3998 24.4704C 21.188 14.6002 24.2015 5.05912 27.0991 1.52232C 25.3606 0.617179 19.6647 13.3665 18.4063 22.7431C 17.4129 30.1457 15.9227 38.2886 19.3998 52.6003C 19.3998 52.6003 17.1645 36.808 19.3998 24.4704Z"/>
<path id="path3_fill" fill-rule="evenodd" d="M 30.7893 0.823508C 22.0427 -1.44657 3.72637 -0.387197 0.433555 22.0108C -2.85929 44.4089 13.5534 53.7919 17.6694 55.5575C 20.0487 56.5781 22.6859 56.6716 25.2828 56.7637C 27.1784 56.8309 29.0525 56.8974 30.7893 57.3231C 31.2038 57.4247 31.7514 57.5826 32.4128 57.7733C 38.3194 59.4763 53.307 63.7977 63.7175 54.0441C 75.2939 43.1982 78.3809 30.8389 74.2649 16.9662C 70.1489 3.09358 49.0542 -0.942106 42.1084 0.823508C 37.378 2.02597 36.6622 3.55747 36.9771 4.45318C 37.1341 3.5816 38.2997 2.42689 41.9738 1.48052C 48.6797 -0.246751 69.0457 3.70131 73.0196 17.2727C 76.9934 30.8442 74.0131 42.9351 62.8366 53.5455C 52.7856 63.0873 38.3157 58.8598 32.6132 57.1937C 31.9746 57.0071 31.4459 56.8526 31.0457 56.7533C 29.369 56.3368 27.5596 56.2718 25.7295 56.206C 23.2223 56.1159 20.6762 56.0244 18.3791 55.026C 14.4052 53.2987 -1.44053 44.1195 1.73855 22.2078C 4.91762 0.296111 22.6013 -0.740255 31.0457 1.48052L 37.2549 5.42858C 37.0895 5.24371 36.9664 4.99114 36.9584 4.69469L 30.7893 0.823508Z"/>
<path id="path4_fill" d="M 12.9845 10.1169C 11.7923 7.74805 8.01715 2.38528 6.27859 0C 4.78839 0 -0.675659 8.63636 0.0694387 10.1169C 0.814537 11.5974 14.4747 13.0779 12.9845 10.1169Z"/>
<path id="path5_fill" d="M 24.6577 11.3506C 24.2603 9.96883 33.2677 6.33333 37.8211 4.68831C 37.8211 5.92208 37.8211 15.7922 35.5858 16.2857C 33.3505 16.7792 25.1544 13.0779 24.6577 11.3506Z"/>
<path id="path6_fill" d="M 17.7405 0C 23.9497 0 26.6817 3.94805 22.9562 5.67532C 22.1777 6.03629 21.1822 6.32182 20.065 6.64227C 15.8361 7.85521 9.86317 9.56839 7.30916 17.7662C 7.29661 17.8065 7.2841 17.8465 7.27162 17.8861C 7.36699 18.0536 7.46615 18.2227 7.56575 18.3925C 8.37035 19.7642 9.20359 21.1848 8.30262 22.2078C 6.56406 24.1818 -2.37711 20.4805 0.603277 18.7532C 1.9801 17.9553 3.25674 17.8861 3.64568 16.3268C 5.00366 10.8822 9.20967 1.80329 17.7405 0Z"/>
<path id="path7_fill" d="M 11 54.5C 5.5 51.5 0 54.5 0 54.5L 0 0L 209 11.5L 209 107.5C 209 107.5 206.5 104 197.75 101.711C 189 99.4211 187 102.5 178.5 99.5C 170 96.5 174.5 94.5 165 92.0714C 155.5 89.6429 157 92 151 91.9211C 145 91.8421 141.5 86.5 134 84.6128C 126.5 82.7256 125.5 85 118.5 82.5C 111.5 80 109 77.5 101.5 76.7932C 94 76.0865 93.5 77.5 87.5 76.4023C 81.5 75.3045 79 72.5 72 70.6955C 65 68.891 61.5 72 55 70.3045C 48.5 68.609 47.5 65 40 62.9962C 32.5 60.9925 29 63.5 22 61.485C 15 59.4699 16.5 57.5 11 54.5Z"/>
<path id="path8_stroke" d="M -0.718278 1.31684C 1.96891 2.78258 2.51373 3.38869 3.61067 4.11338C 4.75511 4.86946 6.075 5.41602 9.58506 6.42643L 10.4149 3.5435C 6.925 2.53887 5.99489 2.09295 5.26433 1.6103C 4.48627 1.09627 3.53109 0.217416 0.718278 -1.31684L -0.718278 1.31684ZM 9.58506 6.42643C 13.4822 7.49238 16.2515 6.82135 18.6848 6.1979C 21.1183 5.57438 23.2382 4.99432 26.6128 5.94541L 27.3872 3.04707C 23.2618 1.99441 20.3817 2.66622 17.9402 3.29177C 15.4985 3.91738 13.5178 4.49259 10.4149 3.5435L 9.58506 6.42643ZM 26.6128 5.94541C 30.091 6.87466 31.2632 7.8926 32.3767 8.88551C 33.7086 10.0732 35.0434 11.3226 38.6214 12.2559L 39.3786 9.35308C 36.4566 8.5909 35.5414 7.68805 34.3733 6.64645C 32.9868 5.41003 31.409 4.12158 27.3872 3.04707L 26.6128 5.94541ZM 38.6214 12.2559C 42.2362 13.1522 45.0942 12.5089 47.6489 11.9209C 50.204 11.3328 52.4728 10.793 55.6256 11.648L 56.3744 8.74298C 52.5272 7.79348 49.546 8.40589 46.9761 8.99733C 44.4058 9.58889 42.2638 10.1523 39.3786 9.35308L 38.6214 12.2559ZM 55.6256 11.648C 58.8746 12.4612 61.0186 13.9815 63.2689 15.5456C 65.5192 17.1097 67.9242 18.7385 71.23 19.3778L 71.77 16.4267C 69.0758 15.9683 67.2308 14.6459 64.9811 13.0822C 62.7314 11.5185 60.1254 9.73433 56.3744 8.74298L 55.6256 11.648ZM 71.23 19.3778C 74.4945 19.9511 76.6397 19.5986 78.7078 19.2198C 80.7749 18.8411 82.8201 18.4382 86.3593 18.7866L 86.6407 15.7999C 82.6799 15.4415 80.2251 15.8919 78.1672 16.2689C 76.1103 16.6457 74.5055 16.9511 71.77 16.4267L 71.23 19.3778ZM 86.3593 18.7866C 89.8563 19.094 91.8038 20.027 93.9318 21.2699C 96.0639 22.5118 98.3089 24.0813 101.995 25.4126L 103.005 22.5874C 99.6911 21.4187 97.6861 19.9882 95.4432 18.6784C 93.1962 17.3696 90.6437 16.1992 86.6407 15.7999L 86.3593 18.7866ZM 101.995 25.4126C 105.808 26.7376 108.401 26.5487 110.737 26.276C 113.07 26.0032 115.174 25.6672 118.634 26.5674L 119.366 23.6581C 115.326 22.6711 112.68 23.0288 110.388 23.2963C 108.099 23.564 106.192 23.7624 103.005 22.5874L 101.995 25.4126ZM 118.634 26.5674C 122.074 27.3954 124.308 29.2809 126.631 31.1209C 128.909 32.9243 131.406 34.8739 134.98 34.9209L 135.02 31.9212C 132.594 31.8893 130.841 30.6283 128.494 28.7691C 126.192 26.9466 123.426 24.7174 119.366 23.6581L 118.634 26.5674ZM 134.98 34.9209C 138.318 34.9648 139.845 33.9813 141.166 33.5368C 142.349 33.1385 144.028 32.8487 148.628 34.0247L 149.372 31.1182C 144.472 29.8656 142.151 30.04 140.209 30.6935C 138.405 31.3007 137.682 31.9562 135.02 31.9212L 134.98 34.9209ZM 148.628 34.0247C 150.892 34.5988 152.173 35.1471 153.114 35.7547C 153.983 36.2914 154.402 36.8079 154.947 37.4995C 155.491 38.1904 156.132 39.052 157.201 39.928C 158.218 40.7396 159.751 41.6139 162.001 42.4145L 162.999 39.5855C 160.999 38.8861 159.907 38.2604 159.08 37.5898C 158.305 36.9837 157.884 36.3811 157.303 35.6434C 156.723 34.9064 155.954 34.03 154.73 33.2275C 153.577 32.4958 151.858 31.7583 149.372 31.1182L 148.628 34.0247ZM 162.001 42.4145C 166.566 43.9887 169.787 43.7215 172.715 43.3604C 175.642 42.9991 178.296 42.5637 182.37 43.6617L 183.13 40.7594C 178.454 39.5678 175.233 40.0272 172.348 40.383C 169.463 40.739 166.934 41.0113 162.999 39.5855L 162.001 42.4145ZM 182.37 43.6617C 186.487 44.7129 189.225 46.7033 191.111 48.5401C 192.032 49.4295 192.658 50.2122 193.099 50.8255C 193.311 51.1187 193.453 51.3377 193.557 51.5058C 193.605 51.5833 193.635 51.6341 193.659 51.6757C 193.669 51.6933 193.674 51.702 193.679 51.7112C 193.681 51.7142 193.681 51.7142 193.682 51.7157C 193.682 51.7158 193.681 51.7146 193.681 51.7146C 193.681 51.715 193.68 51.713 193.68 51.7132C 193.68 51.7129 193.68 51.7124 193.68 51.7122C 193.68 51.7117 193.679 51.7112 195 51C 196.321 50.2888 196.32 50.2882 196.32 50.2876C 196.32 50.2874 196.32 50.2867 196.319 50.2862C 196.319 50.2857 196.318 50.2842 196.318 50.283C 196.317 50.2815 196.315 50.2779 196.313 50.2748C 196.311 50.2701 196.305 50.2607 196.3 50.2514C 196.291 50.2358 196.276 50.2078 196.258 50.1772C 196.226 50.1224 196.173 50.0313 196.108 49.9267C 195.986 49.7304 195.786 49.4237 195.533 49.0717C 195.045 48.3947 194.25 47.4093 193.201 46.3875C 191.15 44.402 187.763 41.9976 183.13 40.7594L 182.37 43.6617Z"/>
<path id="path9_fill" fill-rule="evenodd" d="M 30.7893 0.823508C 22.0427 -1.44657 3.72637 -0.387195 0.433555 22.0108C -2.85929 44.4089 13.5534 53.7919 17.6694 55.5575C 20.0487 56.5781 22.6859 56.6716 25.2828 56.7637C 27.1784 56.8309 29.0525 56.8974 30.7893 57.3231C 31.2038 57.4247 31.7514 57.5826 32.4128 57.7733C 38.3194 59.4763 53.307 63.7977 63.7176 54.0441C 75.2939 43.1982 78.3809 30.8389 74.2649 16.9662C 70.1489 3.09358 49.0542 -0.942104 42.1084 0.823508C 37.378 2.02597 36.6622 3.55748 36.9771 4.45319C 37.1341 3.58161 38.2997 2.42689 41.9738 1.48052C 48.6797 -0.246749 69.0457 3.70131 73.0196 17.2727C 76.9934 30.8442 74.0131 42.9351 62.8366 53.5455C 52.7856 63.0873 38.3157 58.8597 32.6132 57.1937C 31.9746 57.0071 31.4459 56.8526 31.0457 56.7533C 29.369 56.3368 27.5596 56.2718 25.7295 56.206C 23.2223 56.1159 20.6762 56.0244 18.3791 55.026C 14.4052 53.2987 -1.44053 44.1195 1.73855 22.2078C 4.91762 0.296111 22.6013 -0.740255 31.0457 1.48052L 37.2549 5.42858C 37.0895 5.24372 36.9664 4.99114 36.9584 4.69469L 30.7893 0.823508Z"/>
<path id="path10_fill" fill-rule="evenodd" d="M 30.7893 0.823508C 22.0427 -1.44657 3.72639 -0.387197 0.433547 22.0108C -2.85927 44.4089 13.5534 53.7919 17.6694 55.5575C 20.0487 56.5781 22.6859 56.6716 25.2829 56.7637C 27.1785 56.8309 29.0526 56.8974 30.7893 57.3231C 31.2038 57.4247 31.7514 57.5826 32.4128 57.7733C 38.3194 59.4763 53.307 63.7978 63.7175 54.0441C 75.2939 43.1982 78.3809 30.8389 74.2649 16.9662C 70.1489 3.09358 49.0542 -0.942106 42.1084 0.823508C 37.3779 2.026 36.6622 3.55755 36.9772 4.45325C 37.1341 3.58166 38.2997 2.42692 41.9739 1.48052C 48.6798 -0.246751 69.0458 3.70131 73.0196 17.2727C 76.9935 30.8442 74.0131 42.9351 62.8366 53.5455C 52.7857 63.0873 38.3159 58.8598 32.6132 57.1937C 31.9746 57.0071 31.446 56.8526 31.0458 56.7533C 29.369 56.3368 27.5596 56.2718 25.7295 56.206C 23.2223 56.1159 20.6762 56.0244 18.3791 55.026C 14.4053 53.2987 -1.44048 44.1195 1.7386 22.2078C 4.91768 0.296111 22.6013 -0.740255 31.0458 1.48052L 37.255 5.42858C 37.0896 5.24372 36.9664 4.99115 36.9585 4.69471L 30.7893 0.823508Z"/>
<path id="path11_fill" d="M 13 57C 7.5 54 0 58 0 58L 0 0L 208 28L 208 109C 208 109 205.5 103.5 196.75 101.211C 188 98.9211 189 105 180.5 102C 172 99 174.5 96 165 93.5714C 155.5 91.1429 155 93.5 149 93.4211C 143 93.3421 141.5 88 134 86.1128C 126.5 84.2256 125 87.5 118 85C 111 82.5 109 79 101.5 78.2932C 94 77.5865 92.5 79 86.5 77.9023C 80.5 76.8045 79 73 72 71.1955C 65 69.391 62.5 73.5 56 71.8045C 49.5 70.109 47.5 65.5 40 63.4963C 32.5 61.4925 31 66 24 63.985C 17 61.9699 18.5 60 13 57Z"/>
<path id="path12_stroke" d="M 0 0.16C 0.198246 1.64684 0.197919 1.64689 0.19762 1.64693C 0.197559 1.64693 0.197288 1.64697 0.197164 1.64699C 0.197174 1.64698 0.196736 1.64704 0.196759 1.64704C 0.196327 1.6471 0.197111 1.64699 0.19796 1.64688C 0.200615 1.64654 0.203103 1.64622 0.208319 1.64557C 0.220686 1.64401 0.236017 1.64213 0.260083 1.63932C 0.312166 1.63321 0.382457 1.62536 0.481595 1.61551C 0.688097 1.59493 0.97274 1.57006 1.34676 1.54799C 2.11248 1.50231 3.14082 1.47242 4.36442 1.53322C 6.84921 1.6524 9.76962 2.081 12.2817 3.47684L 13.7183 0.843157C 10.7304 -0.760998 7.15079 -1.3324 4.51058 -1.46322C 3.17168 -1.52742 1.98127 -1.49481 1.16886 -1.44674C 0.753823 -1.42194 0.40956 -1.39211 0.184421 -1.36973C 0.0677379 -1.35809 -0.0284745 -1.34739 -0.0889406 -1.34031C -0.121149 -1.33653 -0.148604 -1.33317 -0.164953 -1.33112C -0.174096 -1.32997 -0.18245 -1.3289 -0.187046 -1.32831C -0.189823 -1.32795 -0.192631 -1.32758 -0.194021 -1.3274C -0.194954 -1.32728 -0.196012 -1.32714 -0.196479 -1.32708C -0.196831 -1.32703 -0.197273 -1.32697 -0.197449 -1.32695C -0.197861 -1.32689 -0.198246 -1.32684 0 0.16ZM 12.2817 3.47684C 14.788 4.8109 15.6487 5.92088 16.9086 7.11336C 18.2879 8.41348 19.8803 9.51998 23.5851 10.5864L 24.4149 7.7035C 21.1197 6.75491 19.9621 5.86893 18.9664 4.93033C 17.8513 3.88408 16.712 2.5091 13.7183 0.843157L 12.2817 3.47684ZM 23.5851 10.5864C 27.5035 11.7144 29.9687 10.9912 32.2243 10.3472C 34.321 9.7486 36.2548 9.20825 39.6128 10.1054L 40.3872 7.20707C 36.2452 6.10047 33.679 6.81201 31.4007 7.46246C 29.2813 8.06756 27.4965 8.59057 24.4149 7.7035L 23.5851 10.5864ZM 39.6128 10.1054C 46.5209 11.7963 48.5242 16.4083 55.6214 18.4159L 56.3786 15.5131C 50.4758 14.1298 48.4791 9.52366 40.3872 7.20707L 39.6128 10.1054ZM 55.6214 18.4159C 59.2551 19.3122 61.8796 18.66 64.1832 18.0726C 66.4872 17.485 68.4893 16.9532 71.6256 17.808L 72.3744 14.903C 68.5107 13.9533 65.7628 14.5737 63.4418 15.1656C 61.1204 15.7577 59.2449 16.3123 56.3786 15.5131L 55.6214 18.4159ZM 71.6256 17.808C 74.8914 18.6287 76.8001 19.9128 78.8014 21.2276C 80.8029 22.5424 82.9437 23.9064 86.23 24.5378L 86.77 21.5867C 84.0563 21.1204 82.4471 20.0332 80.4486 18.7202C 78.4499 17.4072 76.1086 15.8868 72.3744 14.903L 71.6256 17.808ZM 86.23 24.5378C 89.3959 25.1075 91.4529 25.0302 93.5303 24.9015C 95.6051 24.7729 97.7383 24.5998 101.359 24.9466L 101.641 21.9598C 97.7617 21.5999 95.3949 21.7802 93.3447 21.9072C 91.2971 22.0342 89.6041 22.1147 86.77 21.5867L 86.23 24.5378ZM 101.359 24.9466C 104.871 25.258 106.958 26.202 109.213 27.4475C 111.471 28.6918 113.827 30.2504 117.495 31.5726L 118.505 28.7474C 115.173 27.5696 113.029 26.1281 110.662 24.8208C 108.292 23.5146 105.629 22.3553 101.641 21.9598L 101.359 24.9466ZM 117.495 31.5726C 121.311 32.8981 123.785 32.7078 125.996 32.4349C 128.206 32.1617 130.18 31.8275 133.634 32.7274L 134.366 29.8181C 130.32 28.8308 127.794 29.1902 125.629 29.4575C 123.465 29.7249 121.689 29.9219 118.505 28.7474L 117.495 31.5726ZM 133.634 32.7274C 137.082 33.5594 139.074 35.2037 141.15 36.7954C 143.229 38.3895 145.529 39.9657 148.98 40.0809L 149.02 37.0812C 146.471 37.1175 145.021 35.9832 142.975 34.4146C 140.926 32.8437 138.418 30.8734 134.366 29.8181L 133.634 32.7274ZM 148.98 40.0809C 152.242 40.1009 153.974 39.5097 155.886 39.2619C 157.714 39.0175 160.015 39.0054 164.628 40.1847L 165.372 37.2782C 160.485 36.0289 157.786 35.9811 155.489 36.2884C 153.276 36.5922 151.758 37.1402 149.02 37.0812L 148.98 40.0809ZM 164.628 40.1847C 168.992 41.3002 170.885 43.1843 172.629 44.9197C 173.535 45.8209 174.509 46.7746 175.71 47.4833C 176.905 48.162 178.532 48.6441 180.5 48.66L 180.5 45.66C 178.968 45.6759 178.095 45.408 177.211 44.8858C 176.334 44.3936 175.652 43.6955 174.746 42.7932C 172.865 40.9214 170.508 38.5912 165.372 37.2782L 164.628 40.1847ZM 180.5 48.66C 184.284 48.66 185.944 47.785 187.404 47.3421C 188.647 46.965 190.161 46.7202 194.37 47.8217L 195.13 44.9194C 190.589 43.7314 188.478 43.8813 186.533 44.4713C 184.806 44.9955 183.716 45.66 180.5 45.66L 180.5 48.66ZM 194.37 47.8217C 198.642 48.9394 201.056 50.0864 202.365 50.8985C 203.013 51.2959 203.347 51.5778 203.582 51.8081C 203.678 51.8992 203.708 51.9356 203.746 51.9836C 203.755 51.9942 203.753 51.9931 203.75 51.9878C 203.752 51.9921 203.735 51.9653 203.736 51.9675C 203.739 51.9722 203.724 51.9492 203.726 51.9516C 203.728 51.9546 203.719 51.9407 203.72 51.9422C 203.721 51.9438 203.716 51.9362 203.717 51.9371C 203.716 51.9362 203.716 51.9349 203.715 51.9344C 203.715 51.9331 203.714 51.9317 205 51.16C 206.286 50.3883 206.285 50.3869 206.285 50.3855C 206.284 50.385 206.283 50.3836 206.283 50.3827C 206.282 50.3817 206.281 50.3789 206.279 50.3769C 206.278 50.3748 206.274 50.369 206.272 50.3648C 206.269 50.36 206.261 50.3475 206.255 50.338C 206.247 50.3262 206.229 50.2981 206.212 50.2749C 206.19 50.2425 206.14 50.1749 206.091 50.1126C 206.013 50.0149 205.858 49.8382 205.676 49.6591C 205.356 49.3492 204.768 48.8629 203.947 48.3492C 202.319 47.3389 199.608 46.0911 195.13 44.9194L 194.37 47.8217Z"/>
<path id="path13_stroke" d="M -0.276629 0.960977C 6.70567 2.97074 8.21486 3.466 15.7419 5.47739L 16.2581 3.54516C 8.78514 1.54903 7.29433 1.05933 0.276629 -0.960977L -0.276629 0.960977ZM 15.7419 5.47739C 19.3338 6.43705 20.8451 7.51845 22.2785 8.58366C 23.8136 9.7244 25.3117 10.8909 28.7476 11.7872L 29.2524 9.85193C 26.1883 9.05268 24.9364 8.06696 23.4715 6.97837C 21.9049 5.81426 20.1662 4.58927 16.2581 3.54516L 15.7419 5.47739ZM 28.7476 11.7872C 32.1864 12.6653 35.1237 12.3062 37.9324 11.9669C 40.7413 11.6276 43.4304 11.3058 46.7504 12.1789L 47.2496 10.2422C 43.5696 9.3107 40.5087 9.64119 37.6926 9.98137C 34.8763 10.3216 32.3136 10.6693 29.2524 9.85193L 28.7476 11.7872ZM 46.7504 12.1789C 50.0943 13.0268 52.0751 14.3503 54.0759 15.6647C 56.0769 16.9793 58.1291 18.2971 61.32 18.901L 61.68 16.9336C 58.8709 16.4397 57.1731 15.3064 55.1741 13.9932C 53.1749 12.6798 50.9057 11.1988 47.2496 10.2422L 46.7504 12.1789ZM 61.32 18.901C 64.4964 19.4662 66.5515 19.1215 68.6177 18.743C 70.6833 18.3646 72.7967 17.9538 76.4062 18.3039L 76.5938 16.3127C 72.7033 15.956 70.3167 16.3985 68.2573 16.7758C 66.1985 17.1529 64.5036 17.4662 61.68 16.9336L 61.32 18.901ZM 76.4062 18.3039C 79.9875 18.6266 82.0359 19.5991 84.1837 20.853C 86.3342 22.1062 88.5392 23.6526 92.1637 24.9568L 92.8363 23.0733C 89.4608 21.8775 87.4158 20.4239 85.1913 19.1254C 82.9641 17.8276 80.5125 16.6967 76.5938 16.3127L 76.4062 18.3039ZM 92.1637 24.9568C 95.8182 26.2484 98.4927 26.3214 101.07 26.3012C 103.647 26.2808 106.145 26.1787 109.756 27.0976L 110.244 25.158C 106.355 24.1897 103.603 24.2813 101.055 24.3013C 98.5073 24.3215 96.1818 24.2817 92.8363 23.0733L 92.1637 24.9568ZM 109.756 27.0976C 113.305 27.9668 115.383 29.6654 117.454 31.2537C 119.528 32.8435 121.686 34.346 124.987 34.436L 125.013 32.4362C 122.314 32.4472 120.722 31.2392 118.671 29.6665C 116.617 28.0921 114.195 26.1761 110.244 25.158L 109.756 27.0976ZM 124.987 34.436C 128.185 34.4781 129.823 33.5673 131.466 33.0906C 133.062 32.6275 135.124 32.372 139.752 33.5553L 140.248 31.6176C 135.376 30.3724 132.938 30.5811 130.909 31.1698C 128.927 31.7448 127.815 32.473 125.013 32.4362L 124.987 34.436ZM 139.752 33.5553C 142.068 34.1472 143.376 34.7518 144.191 35.3243C 145.005 35.8757 145.346 36.4126 145.772 37.1088C 146.199 37.8046 146.687 38.6568 147.63 39.5191C 148.586 40.3747 149.965 41.1807 152.167 41.958L 152.833 40.072C 150.785 39.3494 149.664 38.6554 148.964 38.0288C 148.25 37.409 147.926 36.7969 147.478 36.0642C 147.029 35.3317 146.433 34.4758 145.34 33.6879C 144.249 32.9211 142.682 32.24 140.248 31.6176L 139.752 33.5553ZM 152.167 41.958C 156.711 43.5143 159.896 42.7079 162.815 41.8458C 165.733 40.9836 168.403 40.0804 172.497 41.193L 173.003 39.2581C 168.347 38.0812 165.142 39.0727 162.248 39.9277C 159.354 40.7827 156.789 41.5158 152.833 40.072L 152.167 41.958ZM 172.497 41.193C 176.769 42.3047 180.449 44.1902 183.135 45.8322C 184.468 46.6463 185.518 47.3805 186.253 47.9241C 186.617 48.1926 186.891 48.4057 187.081 48.5571C 187.175 48.6312 187.243 48.6864 187.29 48.7256C 187.313 48.7444 187.329 48.7576 187.341 48.7673C 187.346 48.7717 187.349 48.7745 187.352 48.7768C 187.353 48.7777 187.354 48.7781 187.354 48.7786C 187.354 48.7787 187.355 48.7788 187.354 48.7787C 187.354 48.7787 187.354 48.7787 187.354 48.7786C 187.354 48.7785 187.354 48.7784 188 48.015C 188.646 47.2516 188.646 47.2515 188.646 47.2513C 188.645 47.2512 188.645 47.251 188.645 47.2508C 188.645 47.2506 188.644 47.25 188.643 47.2495C 188.642 47.2486 188.64 47.247 188.638 47.2453C 188.635 47.2423 188.629 47.2371 188.621 47.2311C 188.608 47.2198 188.586 47.2019 188.559 47.1798C 188.508 47.1374 188.427 47.0722 188.326 46.9914C 188.127 46.8331 187.825 46.5986 187.442 46.3157C 186.685 45.7565 185.563 44.9726 184.178 44.1255C 181.426 42.4451 177.481 40.4358 173.003 39.2581L 172.497 41.193Z"/>
<path id="path14_fill" fill-rule="evenodd" d="M 0 2.89835C 3.66299 3.87413 5.19806 4.49413 6.69342 5.1069L 6.77625 5.14085C 8.24289 5.742 9.71878 6.34694 13.0086 7.20888C 16.5417 8.10215 19.5727 7.74029 22.3796 7.40122L 22.4194 7.39641C 25.2112 7.05911 27.798 6.74659 31.0127 7.60094C 34.2074 8.40378 36.1035 9.65004 38.0579 10.9347L 38.1886 11.0205C 40.19 12.3354 42.3309 13.6993 45.6172 14.3307C 45.9217 14.3842 46.2164 14.4296 46.5023 14.4677C 46.9823 13.4491 47.5074 12.5056 48.071 11.6326C 47.4899 11.5946 46.861 11.5146 46.1571 11.3797C 43.5029 10.9235 41.9053 9.87343 39.9665 8.59908L 39.8358 8.51318C 37.8371 7.20011 35.4958 5.6797 31.7616 4.69591C 27.9916 3.74981 24.8377 4.08248 22.0198 4.42287L 21.7054 4.46098C 19.0165 4.78749 16.6218 5.07827 13.7658 4.30601C 10.7169 3.51449 9.41913 2.98226 7.9729 2.38913L 7.83093 2.33092C 6.32629 1.71436 4.61136 1.02797 0.774353 0L 0 2.89835ZM 119.173 26.113C 119.286 27.1448 119.355 28.1675 119.378 29.1811C 120.349 29.3451 121.536 29.5995 123.016 29.9776C 127.953 31.187 131.22 33.2213 134.628 35.3432C 137.445 37.0969 140.357 38.9104 144.388 40.3674C 149.006 41.9472 152.527 41.4096 155.702 40.7975C 155.879 40.7635 156.054 40.7294 156.228 40.6954C 159.198 40.1167 161.955 39.5793 165.757 40.6146C 169.913 41.6832 172.687 43.4644 174.576 45.0632C 175.495 45.8351 176.118 46.5028 176.557 47.0246C 176.766 47.2724 176.905 47.4541 177.007 47.5952C 177.054 47.6594 177.082 47.6997 177.105 47.734C 177.114 47.7468 177.118 47.7529 177.122 47.7594L 177.122 47.7593C 177.122 47.7588 177.122 47.7582 178.387 46.9529C 179.653 46.1476 179.652 46.147 179.652 46.1464L 179.651 46.145L 179.649 46.1419L 179.644 46.1342L 179.63 46.1129C 179.621 46.0992 179.604 46.074 179.586 46.0472C 179.554 45.9998 179.498 45.9197 179.432 45.829C 179.309 45.6605 179.106 45.3946 178.85 45.091C 178.36 44.5099 177.561 43.6596 176.511 42.7703C 174.463 41.0467 171.112 38.9332 166.517 37.7123C 161.898 36.5456 158.43 37.2154 155.345 37.8111L 155.134 37.8518C 151.997 38.4568 149.268 38.9586 145.386 37.5384C 141.802 36.3069 139.108 34.632 136.351 32.918L 136.35 32.9178C 132.884 30.7628 129.318 28.5461 123.759 27.0711C 121.884 26.5918 120.398 26.2871 119.173 26.113Z"/>
<path id="path15_fill" fill-rule="evenodd" d="M 14.6159 6.8822C 10.5977 5.41559 7.37805 3.60058 3.96094 1.67431C 2.98376 1.12346 1.99045 0.563505 0.957703 0L 0 1.75579C 0.99292 2.2972 1.95721 2.84 2.91336 3.3782C 6.25839 5.26113 9.50369 7.0879 13.5262 8.60274C 13.8727 7.99911 14.2365 7.42603 14.6159 6.8822ZM 85.4686 25.0534C 85.4525 24.3945 85.4173 23.7318 85.3632 23.0653C 86.9881 23.1421 88.2638 22.9084 89.7199 22.6416L 89.7362 22.6386L 89.7668 22.633C 91.8193 22.257 94.2014 21.8206 98.0727 22.1755C 101.991 22.5596 104.443 23.6904 106.67 24.9882C 107.111 25.2456 107.545 25.509 107.983 25.7753L 107.986 25.777C 109.759 26.8539 111.61 27.9778 114.315 28.9361C 116.611 29.7655 118.427 30.0444 120.164 30.1312C 119.712 30.7243 119.279 31.3552 118.868 32.0257C 117.321 31.8627 115.626 31.5207 113.643 30.8196C 110.71 29.7645 108.707 28.5509 106.91 27.4622C 106.486 27.2052 106.073 26.9552 105.663 26.7159C 103.515 25.462 101.466 24.4894 97.885 24.1667C 94.3563 23.8245 92.2574 24.2095 90.2352 24.5805L 90.0965 24.6059C 88.6722 24.8668 87.2532 25.1116 85.4686 25.0534ZM 190.478 49.6952C 190.95 49.7966 191.448 49.9159 191.976 50.0559C 196.262 51.173 199.198 52.5642 201.127 53.7031C 202.074 54.2603 202.731 54.7318 203.179 55.0827C 203.395 55.2516 203.542 55.3773 203.647 55.4707C 203.696 55.5141 203.727 55.5427 203.751 55.5655L 203.772 55.5851L 203.772 55.5856C 203.772 55.5853 203.772 55.585 204.479 54.8779C 205.186 54.1708 205.186 54.1705 205.185 54.1701L 205.185 54.1694L 205.183 54.1676L 205.178 54.1631L 205.165 54.1505C 205.157 54.1421 205.141 54.127 205.124 54.1106C 205.092 54.081 205.039 54.0321 204.975 53.9753C 204.855 53.8684 204.66 53.7028 204.412 53.5078C 203.93 53.1309 203.165 52.5843 202.143 51.9804C 200.134 50.7969 196.946 49.2933 192.482 48.121C 191.74 47.9293 191.051 47.7742 190.406 47.6492C 190.45 48.3353 190.474 49.0173 190.478 49.6952Z"/>
<path id="path16_fill" d="M 36.3815 21.3456C 56.0704 22.7672 61.4681 21.2271 66.3428 18.1468C 68.0073 18.1468 70.2663 21.701 68.1262 23.1227C 64.8081 25.3269 56.3557 26.3214 36.3815 26.3214C 24.1117 26.3214 15.0995 22.5303 5.70691 17.0805C 7.7281 22.7672 10.3438 37.5527 7.49032 36.984C 5.11665 36.511 2.57844 24.1997 0.90227 16.254C 0.376616 13.7621 1.43379 11.1855 3.60502 9.85455C 12.3848 4.47274 24.4283 -2.24388 23.1843 0.731187C 21.7576 4.14322 12.1272 10.2091 7.49032 12.8155C 12.9594 16.7251 16.6927 19.9239 36.3815 21.3456Z"/>
</defs>
</svg>
