<svg width="256" height="256" viewBox="0 0 256 256" version="1.1" xmlns="http://www.w3.org/2000/svg" xmlns:xlink="http://www.w3.org/1999/xlink" xmlns:figma="http://www.figma.com/figma/ns">
<title>Frame 2</title>
<desc>Created using Figma</desc>
<g id="Canvas" transform="translate(-76 142)" figma:type="canvas">
<mask id="mask0_alpha" mask-type="alpha">
<path d="M 76 -142L 332 -142L 332 114L 76 114L 76 -142Z" fill="#FFFFFF"/>
</mask>
<g id="Frame 2" style="mix-blend-mode:normal;" mask="url(#mask0_alpha)" figma:type="frame">
<g id="Vector 6" style="mix-blend-mode:normal;" opacity="0.3" figma:type="vector">
<use xlink:href="#path0_fill" transform="translate(156.945 -72.0847)" fill="#302F2E" style="mix-blend-mode:normal;"/>
<use xlink:href="#path1_fill" transform="translate(156.945 -72.0847)" fill="#302F2E" style="mix-blend-mode:normal;"/>
<use xlink:href="#path2_fill" transform="translate(156.945 -72.0847)" fill="#302F2E" style="mix-blend-mode:normal;"/>
</g>
<g id="Subtract" style="mix-blend-mode:normal;" figma:type="vector-operation">
<use xlink:href="#path3_fill" transform="translate(142 -80)" fill="#302F2E" style="mix-blend-mode:normal;"/>
</g>
<g id="Vector 3" style="mix-blend-mode:normal;" figma:type="vector">
<use xlink:href="#path4_fill" transform="translate(163.86 -46)" fill="#302F2E" style="mix-blend-mode:normal;"/>
<use xlink:href="#path5_fill" transform="translate(163.86 -46)" fill="#302F2E" style="mix-blend-mode:normal;"/>
<use xlink:href="#path6_fill" transform="translate(163.86 -46)" fill="#302F2E" style="mix-blend-mode:normal;"/>
</g>
<g id="Union" style="mix-blend-mode:normal;" figma:type="vector">
<use xlink:href="#path7_fill" transform="translate(204.286 -112)" fill="#302F2E" style="mix-blend-mode:normal;"/>
</g>
<g id="Vector 4" style="mix-blend-mode:normal;" figma:type="vector">
<use xlink:href="#path8_fill" transform="translate(115 28.9714)" fill="#302F2E" style="mix-blend-mode:normal;"/>
</g>
</g>
</g>
<defs>
<path id="path0_fill" d="M 64.5548 3.0847C 85.0548 8.58472 119.555 21.5847 117.555 55.0847C 115.411 90.9985 81.7215 110.585 70.0549 113.085C 91.0548 104.585 113.855 81.2847 115.055 56.0847C 116.555 24.5847 91.0548 13.5847 62.5548 3.0847C 70.3882 12.5847 87.4548 36.4847 85.0548 60.0847C 82.6548 83.6847 63.7215 103.918 56.5548 110.085C 62.0548 103.918 78.8548 83.6847 82.0548 60.0847C 85.2548 36.4847 68.7215 12.5847 60.5548 3.0847L 62.5548 3.0847C 62.5548 3.0847 54.0548 -0.415297 64.5548 3.0847Z"/>
<path id="path1_fill" d="M 0.55484 41.5847C 4.55485 17.1847 26.5548 -1.41528 47.5548 0.0847129C 47.5548 0.0847129 62.5548 2.08469 48.5548 1.0847C 34.5548 0.0847129 9.47275 11.0847 3.55484 41.5847C -2.36307 72.0847 28.0549 106.585 28.0549 106.585C 15.0549 96.5847 -3.44517 65.9847 0.55484 41.5847Z"/>
<path id="path2_fill" d="M 39.0548 49.5847C 42.6548 29.5847 48.7215 10.2514 54.5548 3.0847C 51.0548 1.2506 39.5882 27.0847 37.0548 46.0847C 35.0548 61.0847 32.0548 77.5847 39.0548 106.585C 39.0548 106.585 34.5549 74.5847 39.0548 49.5847Z"/>
<path id="path3_fill" fill-rule="evenodd" d="M 61.9837 1.66869C 44.3755 -2.9312 7.5018 -0.784583 0.872805 44.6009C -5.75618 89.9864 27.2851 108.999 35.5714 112.577C 40.3613 114.645 45.6703 114.835 50.8983 115.021C 54.7144 115.157 58.4874 115.292 61.9837 116.155C 62.8182 116.361 63.9205 116.68 65.2521 117.067C 77.143 120.518 107.315 129.274 128.274 109.51C 151.579 87.5332 157.793 62.4894 149.507 34.379C 141.221 6.26858 98.7538 -1.909 84.7708 1.66869C 75.2477 4.10527 73.8067 7.20859 74.4408 9.02358C 74.7568 7.25748 77.1033 4.91766 84.5 3C 98 -0.499999 139 7.50001 147 35C 155 62.5 149 87 126.5 108.5C 106.266 127.835 77.1357 119.268 65.6555 115.892C 64.3699 115.514 63.3056 115.201 62.5 115C 59.1245 114.156 55.4818 114.024 51.7975 113.891C 46.7501 113.709 41.6245 113.523 37 111.5C 29 108 -2.9 89.4 3.50001 45C 9.90002 0.600007 45.5 -1.49999 62.5 3L 75 11C 74.667 10.6254 74.4193 10.1136 74.4032 9.51293L 61.9837 1.66869Z"/>
<path id="path4_fill" d="M 26.1398 20.5C 23.7398 15.7 16.1398 4.83333 12.6398 0C 9.63979 0 -1.36021 17.5 0.139791 20.5C 1.63979 23.5 29.1398 26.5 26.1398 20.5Z"/>
<path id="path5_fill" d="M 49.6398 23C 48.8398 20.2 66.9731 12.8333 76.1398 9.5C 76.1398 12 76.1398 32 71.6398 33C 67.1398 34 50.6398 26.5 49.6398 23Z"/>
<path id="path6_fill" d="M 12.6398 60.5L 0.139791 33L 12.6398 41L 22.1398 36.5L 30.6398 49.5L 43.6398 41L 49.6398 54L 71.6398 47.5L 46.1398 71.5L 40.6398 57.5L 28.6398 66L 19.6398 51.5L 12.6398 60.5Z"/>
<path id="path7_fill" d="M 35.7145 0C 48.2145 0 53.7145 8 46.2145 11.5C 44.6471 12.2314 42.6431 12.81 40.3939 13.4593C 31.8806 15.9171 19.8561 19.3886 14.7145 36C 14.6892 36.0816 14.664 36.1626 14.6389 36.243C 14.8309 36.5823 15.0305 36.9248 15.231 37.2689C 16.8508 40.0485 18.5283 42.9271 16.7145 45C 13.2145 49 -4.78551 41.5 1.21449 38C 3.98625 36.3831 6.55634 36.243 7.33934 33.0832C 10.0732 22.0509 18.5405 3.65404 35.7145 0Z"/>
<path id="path8_fill" d="M 51 30.0286C 78.6 32.0286 86.1667 29.862 93 25.5286C 95.3333 25.5286 98.5 30.5286 95.5 32.5286C 90.8487 35.6295 79 37.0286 51 37.0286C 33.8 37.0286 21.1667 31.6953 8 24.0286C 10.8333 32.0286 14.5 52.8286 10.5 52.0286C 6.99902 51.3284 3.24268 32.1918 0.907213 21.1701C 0.380392 18.6839 1.42868 16.1109 3.58734 14.7697C 15.9682 7.07703 34.3142 -3.32556 32.5 1.02862C 30.5 5.82862 17 14.362 10.5 18.0286C 18.1667 23.5286 23.4 28.0286 51 30.0286Z"/>
</defs>
</svg>
